<mxfile host="app.diagrams.net" modified="2023-11-17T16:24:44.014Z" agent="Mozilla/5.0 (Windows NT 10.0; Win64; x64) AppleWebKit/537.36 (KHTML, like Gecko) Chrome/119.0.0.0 Safari/537.36" etag="scMHDD_R8h8nr7J5aSUU" version="22.1.3" type="device">
  <diagram name="Page-1" id="AMMFkoqXr4BEJ6RdU7Ig">
    <mxGraphModel dx="1964" dy="560" grid="1" gridSize="10" guides="1" tooltips="1" connect="1" arrows="1" fold="1" page="1" pageScale="1" pageWidth="850" pageHeight="1100" math="0" shadow="0">
      <root>
        <mxCell id="0" />
        <mxCell id="1" parent="0" />
        <mxCell id="ZHeBNjW7IDY7wjU2lDVJ-1" value="&lt;div&gt;GET past launches from:&lt;br&gt;https://api.spacexdata.com/v4/launches/past&lt;br&gt;&lt;/div&gt;" style="rounded=1;whiteSpace=wrap;html=1;" vertex="1" parent="1">
          <mxGeometry x="20" y="260" width="290" height="50" as="geometry" />
        </mxCell>
        <mxCell id="ZHeBNjW7IDY7wjU2lDVJ-2" value="" style="endArrow=classic;html=1;rounded=0;entryX=0;entryY=0.5;entryDx=0;entryDy=0;" edge="1" parent="1" target="ZHeBNjW7IDY7wjU2lDVJ-1">
          <mxGeometry width="50" height="50" relative="1" as="geometry">
            <mxPoint x="-50" y="285" as="sourcePoint" />
            <mxPoint y="284.5" as="targetPoint" />
          </mxGeometry>
        </mxCell>
        <mxCell id="ZHeBNjW7IDY7wjU2lDVJ-3" value="GET /rockets/&amp;lt;rocket-id&amp;gt;" style="rounded=1;whiteSpace=wrap;html=1;" vertex="1" parent="1">
          <mxGeometry x="495" y="150" width="160" height="50" as="geometry" />
        </mxCell>
        <mxCell id="ZHeBNjW7IDY7wjU2lDVJ-4" value="GET /launchpads/&amp;lt;launchpad-id&amp;gt;" style="rounded=1;whiteSpace=wrap;html=1;" vertex="1" parent="1">
          <mxGeometry x="480" y="210" width="190" height="50" as="geometry" />
        </mxCell>
        <mxCell id="ZHeBNjW7IDY7wjU2lDVJ-5" value="GET /payloads" style="rounded=1;whiteSpace=wrap;html=1;" vertex="1" parent="1">
          <mxGeometry x="480" y="280" width="190" height="50" as="geometry" />
        </mxCell>
        <mxCell id="ZHeBNjW7IDY7wjU2lDVJ-6" value="GET /cores/&amp;lt;core-id&amp;gt;" style="rounded=1;whiteSpace=wrap;html=1;" vertex="1" parent="1">
          <mxGeometry x="480" y="350" width="190" height="50" as="geometry" />
        </mxCell>
        <mxCell id="ZHeBNjW7IDY7wjU2lDVJ-7" value="" style="endArrow=classic;html=1;rounded=0;exitX=1;exitY=0.5;exitDx=0;exitDy=0;entryX=0;entryY=0.5;entryDx=0;entryDy=0;" edge="1" parent="1" source="ZHeBNjW7IDY7wjU2lDVJ-1" target="ZHeBNjW7IDY7wjU2lDVJ-3">
          <mxGeometry width="50" height="50" relative="1" as="geometry">
            <mxPoint x="400" y="290" as="sourcePoint" />
            <mxPoint x="450" y="240" as="targetPoint" />
            <Array as="points">
              <mxPoint x="400" y="175" />
            </Array>
          </mxGeometry>
        </mxCell>
        <mxCell id="ZHeBNjW7IDY7wjU2lDVJ-8" value="" style="endArrow=classic;html=1;rounded=0;exitX=1;exitY=0.5;exitDx=0;exitDy=0;entryX=0;entryY=0.5;entryDx=0;entryDy=0;" edge="1" parent="1" source="ZHeBNjW7IDY7wjU2lDVJ-1" target="ZHeBNjW7IDY7wjU2lDVJ-4">
          <mxGeometry width="50" height="50" relative="1" as="geometry">
            <mxPoint x="410" y="285" as="sourcePoint" />
            <mxPoint x="490" y="185" as="targetPoint" />
            <Array as="points">
              <mxPoint x="400" y="235" />
            </Array>
          </mxGeometry>
        </mxCell>
        <mxCell id="ZHeBNjW7IDY7wjU2lDVJ-9" value="" style="endArrow=classic;html=1;rounded=0;entryX=0;entryY=0.5;entryDx=0;entryDy=0;exitX=1;exitY=0.5;exitDx=0;exitDy=0;" edge="1" parent="1" source="ZHeBNjW7IDY7wjU2lDVJ-1" target="ZHeBNjW7IDY7wjU2lDVJ-5">
          <mxGeometry width="50" height="50" relative="1" as="geometry">
            <mxPoint x="400" y="290" as="sourcePoint" />
            <mxPoint x="450" y="240" as="targetPoint" />
            <Array as="points">
              <mxPoint x="400" y="305" />
            </Array>
          </mxGeometry>
        </mxCell>
        <mxCell id="ZHeBNjW7IDY7wjU2lDVJ-10" value="" style="endArrow=classic;html=1;rounded=0;entryX=0;entryY=0.5;entryDx=0;entryDy=0;exitX=1;exitY=0.5;exitDx=0;exitDy=0;" edge="1" parent="1" source="ZHeBNjW7IDY7wjU2lDVJ-1" target="ZHeBNjW7IDY7wjU2lDVJ-6">
          <mxGeometry width="50" height="50" relative="1" as="geometry">
            <mxPoint x="380" y="280" as="sourcePoint" />
            <mxPoint x="490" y="315" as="targetPoint" />
            <Array as="points">
              <mxPoint x="400" y="375" />
            </Array>
          </mxGeometry>
        </mxCell>
      </root>
    </mxGraphModel>
  </diagram>
</mxfile>
